<svg width="256" height="256" viewBox="0 0 256 256" fill="none" xmlns="http://www.w3.org/2000/svg">
<path d="M73.35 81.4C73.35 79 73.95 77.55 75.15 77.05C76.45 76.45 78.1 76.15 80.1 76.15C80.4 76.15 80.65 76.25 80.85 76.45H81.15C81.55 76.25 81.95 76.1 82.35 76C82.75 75.9 83.15 75.75 83.55 75.55C84.05 75.35 84.45 75.2 84.75 75.1C85.15 75 85.55 74.95 85.95 74.95C86.85 74.95 87.65 75.25 88.35 75.85C89.15 76.35 89.85 76.9 90.45 77.5H90.75C91.55 77.5 92.25 77.55 92.85 77.65C93.45 77.75 94.05 78.05 94.65 78.55C94.75 78.55 94.85 78.6 94.95 78.7C95.05 78.8 95.2 78.9 95.4 79C95.6 79.1 95.75 79.2 95.85 79.3C95.95 79.3 96.2 79.4 96.6 79.6C96.9 79.6 97.15 79.65 97.35 79.75C97.55 79.75 97.75 79.8 97.95 79.9C98.35 80 99.1 80.5 100.2 81.4C101.3 82.3 101.85 83 101.85 83.5C101.85 84 101.75 84.75 101.55 85.75C101.55 85.85 101.5 85.95 101.4 86.05C101.4 86.15 101.4 86.25 101.4 86.35C101.2 86.55 101.1 86.75 101.1 86.95C100.8 87.75 100.45 88.5 100.05 89.2C99.75 89.9 99.45 90.6 99.15 91.3C98.35 92.9 97.75 94.45 97.35 95.95C97.15 96.65 96.95 97.4 96.75 98.2C96.65 98.9 96.4 99.55 96 100.15H95.1C94.8 100.15 94.55 99.8 94.35 99.1C94.15 98.3 94.05 97.8 94.05 97.6L93.45 97.45C92.75 99.65 92.2 101.95 91.8 104.35C91.4 106.65 91.1 108.95 90.9 111.25C90.7 113.65 90.55 116.05 90.45 118.45C90.35 120.75 90.25 123.05 90.15 125.35V125.65H90.45C90.65 125.65 90.75 125.8 90.75 126.1C90.85 126.3 90.9 126.6 90.9 127C90.9 130.6 91.05 134.2 91.35 137.8C91.75 141.3 92.2 144.8 92.7 148.3C92.7 148.4 92.7 148.55 92.7 148.75C92.8 148.95 92.85 149.2 92.85 149.5V150.1C92.95 150.2 93.05 150.45 93.15 150.85C93.35 151.05 93.45 151.2 93.45 151.3L94.2 152.5L94.5 152.2C94.6 152.1 94.8 152.05 95.1 152.05C95.5 152.05 95.95 152.15 96.45 152.35C96.95 152.55 97.2 152.9 97.2 153.4V153.7L98.25 153.1C99.45 150.8 100.5 148.4 101.4 145.9C102.4 143.3 103.4 140.75 104.4 138.25C107 131.45 109.35 124.7 111.45 118C113.65 111.2 115.45 104.2 116.85 97C117.05 96.2 117.15 95.45 117.15 94.75C117.15 93.95 117.25 93.15 117.45 92.35C117.65 91.75 117.9 90.95 118.2 89.95C118.5 88.95 118.85 87.9 119.25 86.8C119.65 85.7 119.95 84.7 120.15 83.8C120.45 82.8 120.5 81.95 120.3 81.25C120.2 80.85 120.1 80.45 120 80.05C120 79.65 119.9 79.2 119.7 78.7C119.4 77.8 119.25 76.95 119.25 76.15C119.35 74.75 119.6 73.6 120 72.7C120.5 71.7 121.3 70.75 122.4 69.85C122.7 69.55 123 69.25 123.3 68.95C123.7 68.65 124.15 68.25 124.65 67.75C124.95 67.45 125.3 67.3 125.7 67.3H126.45C126.55 67.4 126.6 67.45 126.6 67.45C126.7 67.45 126.8 67.5 126.9 67.6H127.05C127.15 67.6 127.25 67.65 127.35 67.75C127.45 67.75 127.6 67.75 127.8 67.75H129.15C129.25 67.75 129.3 67.75 129.3 67.75C129.4 67.65 129.5 67.6 129.6 67.6C130 67.4 130.3 67.3 130.5 67.3C130.8 67.3 131.1 67.45 131.4 67.75L131.85 68.2C132.05 68.4 132.25 68.55 132.45 68.65C133.65 69.05 135 69.5 136.5 70H136.65H136.95C137.15 69.9 137.55 69.85 138.15 69.85C138.85 69.75 139.3 69.7 139.5 69.7C140.5 69.7 141.1 70.05 141.3 70.75C141.5 71.45 141.6 72.2 141.6 73V74.65V74.8H141.75C142.65 75.4 143.5 76.5 144.3 78.1C145.1 79.7 145.5 81.05 145.5 82.15C145.5 82.75 145.35 83.3 145.05 83.8H144.9V83.95C144.9 84.05 144.8 84.3 144.6 84.7L144.15 85.15C142.55 86.75 141.3 88.2 140.4 89.5C139.5 90.8 138.75 92.6 138.15 94.9C136.05 103.3 134.4 111.85 133.2 120.55C132 129.15 131.4 137.8 131.4 146.5C131.4 147.8 131.45 149.6 131.55 151.9C131.75 154.1 132 156.4 132.3 158.8C132.6 161.2 133 163.45 133.5 165.55C134.1 167.55 134.8 169 135.6 169.9C136 170.3 136.5 170.9 137.1 171.7C137.8 172.5 138.3 173.15 138.6 173.65C138.7 173.75 138.85 174 139.05 174.4C139.05 175.1 138.7 175.45 138 175.45C134.9 175.35 132.25 174.25 130.05 172.15C127.95 170.05 126.2 167.55 124.8 164.65C123.4 161.75 122.35 158.7 121.65 155.5C120.95 152.3 120.45 149.5 120.15 147.1C119.65 143 119.35 138.95 119.25 134.95C119.25 130.85 119.25 126.95 119.25 123.25C119.25 122.25 119.25 121.3 119.25 120.4C119.25 119.5 119.35 118.55 119.55 117.55L119.85 115L118.95 117.55C117.85 120.85 116.9 124.25 116.1 127.75C115.4 131.15 114.65 134.6 113.85 138.1C113.45 139.9 113.05 141.75 112.65 143.65C112.25 145.45 111.85 147.25 111.45 149.05C110.95 151.35 110.3 153.65 109.5 155.95C108.7 158.25 108.05 160.55 107.55 162.85C107.35 163.65 107.2 164.4 107.1 165.1C107.1 165.7 107 166.4 106.8 167.2C106.7 167.4 106.65 167.6 106.65 167.8C106.65 168.1 106.6 168.35 106.5 168.55C106.4 168.75 106.3 168.95 106.2 169.15C106.2 169.35 106.15 169.55 106.05 169.75C105.95 170.05 105.75 170.35 105.45 170.65C105.25 171.05 104.95 171.35 104.55 171.55C104.05 171.75 103.55 172 103.05 172.3C102.65 172.6 102.3 172.85 102 173.05C101.6 173.35 101.2 173.65 100.8 173.95C100.4 174.35 100 174.75 99.6 175.15C98.9 175.85 98 176.2 96.9 176.2C95.6 176.1 94.6 175.9 93.9 175.6C93.3 175.3 92.75 174.6 92.25 173.5C91.95 172.9 91.65 172.3 91.35 171.7C91.15 171.1 90.9 170.55 90.6 170.05C90.4 169.65 90 169.15 89.4 168.55L88.05 167.2C87.55 166.7 87.1 166.25 86.7 165.85C86.3 165.45 85.95 165 85.65 164.5C85.05 163.4 84.35 162.2 83.55 160.9C82.85 159.5 82.2 158.1 81.6 156.7C81 155.2 80.45 153.8 79.95 152.5C79.55 151.1 79.35 149.8 79.35 148.6C79.35 147.9 79.3 147.25 79.2 146.65C79.2 145.95 79.15 145.25 79.05 144.55C78.85 143.45 78.7 142.35 78.6 141.25C78.5 140.15 78.45 139.05 78.45 137.95C78.55 130.65 78.7 123.4 78.9 116.2C79.2 108.9 79.35 101.65 79.35 94.45C79.25 93.35 79.15 92.3 79.05 91.3C79.05 90.3 78.95 89.25 78.75 88.15L78.6 86.8L78.15 88C78.15 88 78.05 88.3 77.85 88.9L77.7 89.35V89.65C77.7 90.15 77.7 90.55 77.7 90.85C77.7 91.05 77.8 91.4 78 91.9C78.2 92.7 78.25 93.35 78.15 93.85V94L78.3 94.15C78.3 94.45 78.25 94.6 78.15 94.6L77.7 95.05C77.6 95.05 77.5 95 77.4 94.9C77.3 94.9 77.2 94.85 77.1 94.75C77.1 94.75 77 94.65 76.8 94.45L76.35 93.85V106.9V108.1C76.25 108.3 76.2 108.45 76.2 108.55C76.2 108.65 76.15 108.75 76.05 108.85C75.85 108.65 75.65 107.85 75.45 106.45C75.35 104.95 75.2 103.35 75 101.65C74.9 99.95 74.8 98.35 74.7 96.85C74.6 95.25 74.55 94.25 74.55 93.85C74.55 91.75 74.35 89.7 73.95 87.7C73.55 85.6 73.35 83.5 73.35 81.4ZM121.35 133.45L121.8 146.2H122.4C122.4 143 122.4 139.8 122.4 136.6C122.4 133.3 122.45 130.05 122.55 126.85C122.65 124.35 122.8 121.95 123 119.65C123.3 117.25 123.55 114.85 123.75 112.45C123.95 110.55 124.15 108.7 124.35 106.9C124.55 105 124.9 103.15 125.4 101.35C125.6 100.75 125.75 100.15 125.85 99.55C125.95 98.85 126 98.15 126 97.45V96.55L125.55 97.3C125.05 98.1 124.6 99.4 124.2 101.2C123.8 103 123.45 105.1 123.15 107.5C122.85 109.8 122.55 112.25 122.25 114.85C122.05 117.45 121.85 120 121.65 122.5C121.55 124.9 121.45 127.1 121.35 129.1C121.35 131 121.35 132.45 121.35 133.45ZM79.95 128.2H80.55L81.15 115.45C81.35 111.65 81.7 107.8 82.2 103.9C82.7 100 83.2 96.15 83.7 92.35L83.1 92.2C82.4 95.5 81.85 98.6 81.45 101.5C81.05 104.4 80.75 107.3 80.55 110.2C80.35 113 80.2 115.9 80.1 118.9C80 121.8 79.95 124.9 79.95 128.2ZM151.702 116.7L152.302 116L149.802 117L149.702 116.8L149.902 116.6C150.035 116.467 150.135 116.333 150.202 116.2C150.468 115.933 150.668 115.7 150.802 115.5L151.102 115.3C151.635 114.967 152.102 114.6 152.502 114.2C152.835 113.867 153.335 113.467 154.002 113C154.735 112.467 155.502 111.967 156.302 111.5C157.168 111.033 158.002 110.633 158.802 110.3C159.602 109.9 160.268 109.6 160.802 109.4C163.735 108.467 166.902 107.3 170.302 105.9C173.702 104.433 176.768 103.233 179.502 102.3C179.635 102.233 179.902 102.033 180.302 101.7C180.768 101.367 181.068 101.133 181.202 101C181.735 100.467 182.302 100.2 182.902 100.2C183.235 100.2 183.635 100.633 184.102 101.5C184.235 101.633 184.302 101.8 184.302 102C184.368 102.2 184.468 102.4 184.602 102.6C184.735 102.8 184.802 103 184.802 103.2C184.868 103.333 184.968 103.467 185.102 103.6C185.502 104.2 185.935 104.767 186.402 105.3C186.868 105.833 187.268 106.367 187.602 106.9C188.335 107.967 188.702 109.2 188.702 110.6C188.702 110.867 188.668 111.133 188.602 111.4C188.602 111.667 188.602 111.933 188.602 112.2V112.9L188.902 112.3C188.968 112.233 189.002 112.167 189.002 112.1C189.068 111.967 189.168 111.833 189.302 111.7C189.435 111.433 189.502 111.3 189.502 111.3C189.568 111.233 189.635 111.1 189.702 110.9V110.7V110.1C189.702 108.967 189.935 107.967 190.402 107.1C190.868 106.233 191.768 105.8 193.102 105.8C193.502 105.8 193.868 106 194.202 106.4C194.535 106.733 194.768 107.067 194.902 107.4C195.102 107.8 195.368 108.167 195.702 108.5C195.835 108.5 195.968 108.567 196.102 108.7C196.768 109.167 197.202 109.967 197.402 111.1L197.902 113.1V113.2H198.102C198.702 113.467 199.002 113.933 199.002 114.6C199.002 115.4 198.568 115.8 197.702 115.8C197.635 115.867 197.535 115.9 197.402 115.9C197.202 115.9 197.068 115.933 197.002 116C196.002 116.4 195.068 116.933 194.202 117.6C193.935 117.8 193.635 117.9 193.302 117.9C193.168 117.9 192.968 117.833 192.702 117.7C192.702 117.633 192.668 117.6 192.602 117.6C192.602 117.533 192.602 117.467 192.602 117.4L192.502 117.3L192.302 117.4C191.835 117.533 191.102 118.033 190.102 118.9C189.168 119.767 188.135 120.767 187.002 121.9C185.935 122.967 184.902 124.033 183.902 125.1C182.902 126.1 182.168 126.867 181.702 127.4C181.635 127.533 181.368 127.833 180.902 128.3C180.502 128.7 180.235 128.9 180.102 128.9C180.235 128.633 180.302 128.467 180.302 128.4L180.802 126.8L179.902 128.2C179.768 128.467 179.602 128.733 179.402 129C179.268 129.267 179.135 129.533 179.002 129.8C178.602 130.533 178.035 131.167 177.302 131.7C176.568 132.233 175.768 132.5 174.902 132.5C174.835 132.5 174.802 132.467 174.802 132.4H174.702C176.035 129.867 177.468 127.467 179.002 125.2C180.602 122.933 182.235 120.667 183.902 118.4V118.3L183.702 117.3C183.235 116.833 182.835 116.433 182.502 116.1C182.168 115.767 181.868 115.433 181.602 115.1C180.735 114.1 179.702 113.5 178.502 113.3C177.368 113.1 176.168 113 174.902 113C174.768 113.067 174.635 113.1 174.502 113.1C174.502 113.1 174.302 113.167 173.902 113.3C173.702 113.367 173.502 113.433 173.302 113.5C173.102 113.5 172.968 113.533 172.902 113.6C172.168 113.8 171.402 114 170.602 114.2C169.802 114.333 169.035 114.533 168.302 114.8C166.102 115.533 163.935 116.567 161.802 117.9C159.735 119.233 157.935 120.8 156.402 122.6C155.735 123.467 154.935 124.2 154.002 124.8L153.802 124.5C153.802 124.233 153.835 124.067 153.902 124L154.002 123.9V123.8C153.935 123.4 154.102 122.9 154.502 122.3C154.968 121.7 155.468 121.1 156.002 120.5C156.602 119.9 157.202 119.333 157.802 118.8C158.468 118.267 158.968 117.867 159.302 117.6L159.002 117.2L157.002 118.3C156.868 118.3 156.535 118.567 156.002 119.1C155.602 119.5 155.268 119.767 155.002 119.9C154.602 120.3 154.102 120.8 153.502 121.4C152.968 122 152.402 122.667 151.802 123.4C151.268 124.067 150.802 124.767 150.402 125.5C150.068 126.233 149.902 126.9 149.902 127.5C149.902 127.967 150.135 128.5 150.602 129.1C151.135 129.633 151.802 130.233 152.602 130.9C153.402 131.5 154.302 132.1 155.302 132.7C156.302 133.3 157.335 133.9 158.402 134.5C159.468 135.033 160.468 135.6 161.402 136.2C162.402 136.733 163.302 137.233 164.102 137.7C164.568 137.967 165.002 138.233 165.402 138.5C165.802 138.7 166.202 139 166.602 139.4C166.002 139.4 165.235 139.267 164.302 139C163.435 138.667 162.735 138.367 162.202 138.1L162.002 138.4C162.735 138.933 163.468 139.367 164.202 139.7C164.935 140.033 165.702 140.3 166.502 140.5C167.235 140.7 167.968 140.9 168.702 141.1C169.502 141.233 170.335 141.4 171.202 141.6C175.135 142.533 178.902 143.767 182.502 145.3C183.835 145.833 184.768 146.733 185.302 148L187.002 152.5C187.268 153.033 187.435 153.433 187.502 153.7C187.635 154.233 187.702 154.633 187.702 154.9C187.702 155.567 187.635 156 187.502 156.2C187.435 156.333 187.235 156.533 186.902 156.8C186.635 157.067 186.302 157.333 185.902 157.6C185.568 157.8 185.235 158.033 184.902 158.3C184.635 158.5 184.402 158.633 184.202 158.7C182.068 159.633 179.935 160.7 177.802 161.9C175.735 163.1 173.802 164.467 172.002 166L171.302 166.6L172.202 166.4C172.268 166.4 172.335 166.367 172.402 166.3C172.468 166.3 172.568 166.3 172.702 166.3C172.835 166.3 172.902 166.267 172.902 166.2C172.968 166.2 173.068 166.2 173.202 166.2H173.302C173.368 166.2 173.402 166.233 173.402 166.3C173.068 166.633 172.702 166.967 172.302 167.3C171.968 167.633 171.602 167.967 171.202 168.3C170.535 168.833 169.935 169.3 169.402 169.7C168.868 170.167 168.535 170.467 168.402 170.6C167.735 171.267 167.002 171.833 166.202 172.3C165.468 172.767 164.735 173.3 164.002 173.9C163.668 174.167 163.302 174.4 162.902 174.6C162.568 174.8 162.202 175.067 161.802 175.4C161.468 175.733 161.102 176.033 160.702 176.3C160.368 176.567 160.035 176.867 159.702 177.2L156.902 180C156.635 180.267 156.268 180.5 155.802 180.7C155.335 180.967 154.935 181.1 154.602 181.1C154.202 181.1 153.668 180.9 153.002 180.5C152.335 180.1 151.668 179.633 151.002 179.1C150.402 178.567 149.835 178 149.302 177.4C148.835 176.8 148.535 176.3 148.402 175.9L147.902 174.5C147.835 174.367 147.735 174.133 147.602 173.8C147.468 173.467 147.335 173.133 147.202 172.8C147.068 172.4 146.935 172.033 146.802 171.7C146.735 171.433 146.702 171.233 146.702 171.1C146.702 170.767 146.768 170.467 146.902 170.2C147.102 170 147.268 169.733 147.402 169.4L148.202 168.7C148.402 168.5 148.635 168.267 148.902 168C149.235 167.733 149.568 167.433 149.902 167.1C150.902 166.167 151.902 165.267 152.902 164.4C153.902 163.533 154.968 162.733 156.102 162C157.302 161.2 158.368 160.4 159.302 159.6C159.835 159.133 160.335 158.733 160.802 158.4C161.268 158 161.802 157.633 162.402 157.3C162.468 157.233 162.535 157.2 162.602 157.2C162.802 157.2 162.902 157.367 162.902 157.7C162.902 157.833 162.668 158.167 162.202 158.7C161.802 159.233 161.302 159.833 160.702 160.5L159.002 162.2L158.402 162.8C158.335 162.867 158.235 162.967 158.102 163.1C158.035 163.233 158.002 163.333 158.002 163.4C157.868 163.533 157.802 163.667 157.802 163.8C157.735 163.867 157.635 164.033 157.502 164.3C157.502 164.367 157.468 164.433 157.402 164.5L157.302 164.8H157.502C157.568 164.8 157.635 164.833 157.702 164.9C157.768 164.9 157.868 164.9 158.002 164.9C158.068 164.9 158.102 164.933 158.102 165C158.168 165 158.268 165 158.402 165C159.002 165 159.902 164.767 161.102 164.3C162.302 163.833 163.635 163.233 165.102 162.5C166.568 161.7 168.068 160.867 169.602 160C171.135 159.067 172.535 158.167 173.802 157.3C175.135 156.367 176.202 155.533 177.002 154.8C177.802 154 178.202 153.4 178.202 153C178.202 152.667 177.802 152.167 177.002 151.5C176.202 150.767 175.268 150.033 174.202 149.3C173.202 148.567 172.202 147.933 171.202 147.4C170.268 146.8 169.635 146.467 169.302 146.4C169.102 146.2 168.868 146 168.602 145.8C168.335 145.6 168.068 145.433 167.802 145.3L166.902 144.7C166.768 144.567 166.635 144.467 166.502 144.4C166.435 144.333 166.335 144.267 166.202 144.2L166.102 144C165.968 144 165.902 143.933 165.902 143.8L165.602 143.6V143.5C165.068 143.233 164.568 143.067 164.102 143C163.702 142.867 163.268 142.733 162.802 142.6C162.335 142.467 161.868 142.367 161.402 142.3C160.935 142.233 160.468 142.133 160.002 142C159.668 141.867 159.302 141.767 158.902 141.7C158.568 141.567 158.235 141.433 157.902 141.3C156.768 140.767 155.835 140.467 155.102 140.4C154.435 140.333 153.468 140.3 152.202 140.3C151.468 140.3 150.968 139.767 150.702 138.7V138.6H150.502C150.102 138.4 149.502 138 148.702 137.4C147.968 136.8 147.602 136.333 147.602 136C147.602 134.733 147.468 133.767 147.202 133.1C146.935 132.433 146.535 131.533 146.002 130.4C145.668 129.733 145.502 128.933 145.502 128C145.502 126.867 145.668 125.8 146.002 124.8C146.402 123.8 146.902 122.833 147.502 121.9C148.102 120.967 148.768 120.1 149.502 119.3C150.235 118.433 150.968 117.567 151.702 116.7Z" fill="#313D95"/>
</svg>
